PathFileType	4	(X/Y/Z)	Patient4_TMGait_0pt8_01_left_25.trc.trc
DataRate	CameraRate	NumFrames	NumMarkers	Units	OrigDataRate	OrigDataStartFrame	OrigNumFrames
89.743589743590	89.743589743590	5	33	mm	89.743589743590	1	       141
Frame#	Time	Sacral			L.Shoulder			Chest			R.Shoulder			Neck			R.ASIS			L.ASIS			R.Thigh.Superior			R.Thigh.Lateral			R.Thigh.Inferior			R.Patella			L.Thigh.Superior			L.Thigh.Lateral			L.Thigh.Inferior			L.Patella			L.Shank.Superior			L.Shank.Lateral			L.Shank.Inferior			R.Shank.Superior			R.Shank.Lateral			R.Shank.Inferior			R.Heel			R.Midfoot.Superior			R.Midfoot.Lateral			R.Toe			L.Heel			L.Midfoot.Lateral			L.Midfoot.Superior			L.Toe			L.Elbow			L.Wrist			R.Elbow			R.Wrist			
		X1	Y1	Z1	X2	Y2	Z2	X3	Y3	Z3	X4	Y4	Z4	X5	Y5	Z5	X6	Y6	Z6	X7	Y7	Z7	X8	Y8	Z8	X9	Y9	Z9	X10	Y10	Z10	X11	Y11	Z11	X12	Y12	Z12	X13	Y13	Z13	X14	Y14	Z14	X15	Y15	Z15	X16	Y16	Z16	X17	Y17	Z17	X18	Y18	Z18	X19	Y19	Z19	X20	Y20	Z20	X21	Y21	Z21	X22	Y22	Z22	X23	Y23	Z23	X24	Y24	Z24	X25	Y25	Z25	X26	Y26	Z26	X27	Y27	Z27	X28	Y28	Z28	X29	Y29	Z29	X30	Y30	Z30	X31	Y31	Z31	X32	Y32	Z32	X33	Y33	Z33	

1	27.360000000000	894.926600420761	1007.485876875882	527.246427242258	1042.524287089054	1439.967671719105	340.456359564529	1163.398536842401	1370.999786933277	489.339024530937	1097.542781791284	1437.536227025453	673.335892539272	1042.287988952584	1499.066227935234	497.399557076345	1128.517546221985	949.673454685883	628.039232337811	1095.067594639992	966.412911905907	355.489234931372	1154.857541088288	743.817589254417	600.066715888512	1066.455521850116	637.123466534139	659.217305811576	1138.819138443682	582.139563493758	580.135993237605	1132.861012745587	496.128351150356	584.788438866442	1184.045369954264	789.381806857013	367.584727939431	1133.604352296157	659.600560367126	292.946018257995	1248.484844261374	602.473888526188	335.258568732936	1265.782122804599	515.528839861128	327.152831470306	1207.816325729506	442.289295785993	329.531715577502	1068.923377880933	379.119436548431	297.679127510573	1082.993434368289	249.926912792087	353.090902198868	1106.632525555297	408.164858524885	589.143299302121	1034.002226754436	301.595995244750	644.933455434895	1082.151044798667	209.312027294171	580.216349663871	951.866480817381	43.030186907725	541.511518365583	1124.272236091342	99.502472205572	579.975080351595	1035.507277177062	37.006761536054	615.660105322632	1243.043352703478	48.015813731633	604.707911134114	910.680270129051	152.184498020971	414.482114572501	963.553129212144	121.565223928004	324.141021861136	1068.120628097224	148.567712672615	332.521691272024	1159.752125516228	55.342943184413	285.772775017473	1030.398414510261	1082.918073504580	235.459676622516	1136.288491961572	844.686372536798	224.109837245265	1137.728458150104	1084.825461583665	785.122933783636	1294.915900504149	876.939387003214	784.285640967054	
2	27.371142857143	893.746605039929	1007.340394158469	528.196206545224	1041.188440838677	1438.915841921414	340.429194524476	1162.876506480169	1370.247637642852	488.752614421706	1098.293455905031	1437.443022728291	673.034254387983	1042.132611812335	1498.559791581550	497.213458319222	1127.561557909902	949.108168390515	628.408149534215	1093.481408784572	965.931014076130	355.859007274736	1151.409545930171	742.775633704651	599.663898446645	1062.147131852500	636.825112401532	659.615431215082	1133.066685331813	581.097310576294	580.041326268230	1126.067668532700	495.361971215307	584.633626865141	1183.776935321951	791.337083541424	369.217233002804	1136.072102020891	661.173447199267	293.741720176336	1250.823492570935	605.445606281333	337.440058994940	1270.068835620573	520.165551175458	328.551898571384	1216.079553196444	445.693457556277	329.210797244860	1082.328827219691	374.599533663452	296.218611371777	1105.074202013135	246.300141152473	349.486894719852	1099.340969437834	407.588095204879	588.917233189487	1026.716932108399	301.329534576623	645.110506617243	1073.726292903959	208.912856217434	579.931523674104	942.622093479928	42.944323143881	541.286259943727	1114.934980776567	99.328622727420	579.835079065173	1026.119866996759	37.049186238969	615.623570232676	1233.685572014287	47.510910146909	604.710248612665	941.005271838143	137.728845527220	409.575208286023	994.898969204421	111.434884064700	318.858488296475	1097.125032499688	144.419646440823	327.483025993194	1193.594617329392	57.777538509173	279.606417475041	1020.002436085278	1081.996680338144	237.175162110906	1108.997099815751	839.398181987239	225.130877660297	1149.120836518805	1087.221108170780	785.474744120478	1318.359845949394	891.136557401198	780.505115375611	
3	27.382285714286	892.588660859259	1007.193175954523	529.109705306999	1039.921984775327	1437.873691481099	340.376160577936	1162.388292656163	1369.483907469562	488.160374829430	1099.040242210632	1437.329521726424	672.711804986278	1042.006891002086	1498.046643370854	496.995408212865	1126.621312877069	948.547767752489	628.766708797575	1091.932453989349	965.415043047286	356.204768044577	1148.021563309314	741.732629281315	599.315917053886	1057.861865952976	636.528915484223	660.013888207659	1127.372473072270	580.060674426492	579.978599489633	1119.344171788120	494.606035022804	584.499309669477	1183.429039922829	793.139721906464	370.819912661532	1138.363005397549	662.639925473954	294.506249126187	1252.917550520056	608.215901053814	339.637390363663	1274.086961329781	524.634586333762	329.959638072959	1224.071938243877	449.027338229577	328.942531608246	1095.618753921537	370.119214538037	294.715469171215	1126.938596714500	242.866097205732	345.971412288594	1092.126640373568	407.026766347916	588.707900541493	1019.499600976974	301.071631567536	645.296724353092	1065.399907312226	208.527426423704	579.658764234360	933.489579876459	42.867973082507	541.079810854913	1105.718335136326	99.159322983958	579.702251635362	1016.855612523003	37.090197458289	615.589011208864	1224.455546455070	47.018154880408	604.719649871544	971.174498776066	123.695232182594	404.695451818291	1026.111743613149	101.654201198236	313.665467636302	1125.939274549389	140.538965253554	322.581788664657	1227.157030650482	60.443131785410	273.730370908796	1009.671698784847	1081.169278758709	238.809249130722	1082.161518823554	834.456601279372	226.148494963428	1160.279284882030	1089.615492946185	785.786074928086	1341.324275974507	905.365614138457	776.719975516056	
4	27.393428571429	891.478526656144	1007.038212751974	529.949685129224	1038.790704648785	1436.842653756188	340.259846513232	1161.969115391024	1368.689102666462	487.540825122409	1099.788800912796	1437.172428398322	672.332714462872	1041.940565046490	1497.511585999438	496.703631599704	1125.712358252966	947.981582986077	629.095306812432	1090.454958956345	964.824797240860	356.495533745434	1144.720908951600	740.668795951201	599.061063089013	1053.585549731308	636.230776717590	660.406315043636	1121.739844345613	579.025113918465	579.962854377802	1112.699263695329	493.856963299498	584.391756233454	1182.912495627873	794.623942634262	372.359409386105	1140.288496451533	663.877746425736	295.196121756262	1254.530028085296	610.580573473426	341.839951692317	1277.576510857311	528.783708713824	331.385801863957	1231.553394025410	452.240238931206	328.770531506188	1108.744058936122	365.717343514094	293.139200329262	1148.475884053716	239.847955035680	342.632532537421	1084.991946753409	406.485697081729	588.523715802550	1012.336928318029	300.830220269735	645.498166059397	1057.169979543826	208.162176428544	579.406560158116	924.466363030026	42.808014070500	540.907898241292	1096.625807073585	98.996172446792	579.581401156981	1007.720411315198	37.127300511426	615.558783270049	1215.363321856640	46.546981221764	604.741461664132	1001.198170298840	110.498948382321	399.873696178541	1057.241856291564	92.590264633058	308.668692596240	1154.520049742585	137.241877553400	317.969702368708	1260.323836954435	63.676807306995	268.477492918573	999.378561056788	1080.567370104646	240.290209899745	1056.022454684244	830.228215651046	227.189928647201	1171.051789857613	1092.033555633718	785.993790404070	1363.428157768311	919.873164681832	772.866840007672	
5	27.404571428571	890.440929045249	1006.870566450660	530.687879247926	1037.846955146589	1435.823270515557	340.047375999930	1161.647725605851	1367.847710817613	486.873480831785	1100.545978528958	1436.953735951497	671.865366076222	1041.955980159122	1496.940855684131	496.307256506778	1124.849164754872	947.397118001176	629.377089136157	1089.077811164428	964.129299683822	356.704338674114	1141.522104565554	739.564137803850	598.927926024660	1049.297607686475	635.927175397209	660.787226884428	1116.159631187684	577.986403074012	580.002494277352	1106.127601816376	493.109194932275	584.311824914919	1182.153270695628	795.652462446255	373.803265459259	1141.690776418652	664.785626627626	295.762822462406	1255.476552086533	612.376069559257	344.016733112492	1280.331239481837	532.493718002738	332.834724248377	1238.336877540951	455.295490353274	328.728253919350	1121.675111183292	361.441292655343	291.466810739686	1169.594257510583	237.445984494910	339.551101067920	1077.922451001260	405.968284950944	588.371211310375	1005.200888251384	300.612305644842	645.718637118416	1049.012939201923	207.821709868762	579.182577363373	915.528997239839	42.767432154376	540.780121011045	1087.636539950828	98.840319172632	579.476358305050	998.695431079125	37.158165119744	615.535577172035	1206.392840608330	46.105490459088	604.778197417262	1031.076826402052	98.499962099795	395.134368935237	1088.342467576748	84.564091195172	303.970119761537	1182.833355511044	134.810407375531	313.791724357956	1293.011777735307	67.786353356774	264.172403017591	989.088950094876	1080.310770717000	241.564488426396	1030.743678004743	827.003217227346	228.285451568830	1181.330131715067	1094.496868781729	786.041449145450	1384.369269625217	934.891937601669	768.886280870685	
